<svg width="671" height="150" viewBox="0 0 671 150" fill="none" xmlns="http://www.w3.org/2000/svg">
<rect width="130.535" height="150" fill="#222222"/>
<rect x="540" width="130.535" height="150" fill="#222222"/>
<path d="M569.898 103V44.8182H605.011V51.0682H576.943V70.7273H603.193V76.9773H576.943V96.75H605.466V103H569.898ZM616.801 103V59.3636H623.279V65.9545H623.733C624.529 63.7955 625.968 62.0436 628.051 60.6989C630.135 59.3542 632.483 58.6818 635.097 58.6818C635.589 58.6818 636.205 58.6913 636.943 58.7102C637.682 58.7292 638.241 58.7576 638.619 58.7955V65.6136C638.392 65.5568 637.871 65.4716 637.057 65.358C636.261 65.2254 635.419 65.1591 634.529 65.1591C632.407 65.1591 630.513 65.6042 628.847 66.4943C627.199 67.3655 625.892 68.5777 624.926 70.1307C623.979 71.6648 623.506 73.4167 623.506 75.3864V103H616.801Z" fill="white"/>
<path d="M642.194 44.1989C641.597 44.1894 641.001 44.0758 640.404 43.858C639.807 43.6402 639.263 43.2732 638.771 42.7571C638.278 42.2363 637.883 41.5331 637.584 40.6477C637.286 39.7576 637.137 38.6402 637.137 37.2955C637.137 36.0076 637.258 34.8665 637.499 33.8722C637.741 32.8731 638.091 32.0327 638.55 31.3509C639.01 30.6643 639.564 30.1435 640.212 29.7884C640.866 29.4332 641.602 29.2557 642.421 29.2557C643.235 29.2557 643.96 29.419 644.594 29.7457C645.234 30.0677 645.754 30.5175 646.157 31.0952C646.559 31.6728 646.82 32.3381 646.938 33.0909H645.205C645.044 32.4375 644.732 31.8954 644.268 31.4645C643.804 31.0336 643.188 30.8182 642.421 30.8182C641.294 30.8182 640.406 31.3082 639.758 32.2884C639.114 33.2685 638.789 34.6439 638.785 36.4148H638.898C639.164 36.0123 639.478 35.669 639.843 35.3849C640.212 35.0961 640.619 34.8736 641.065 34.7173C641.51 34.5611 641.981 34.483 642.478 34.483C643.311 34.483 644.074 34.6913 644.765 35.108C645.456 35.5199 646.01 36.0904 646.427 36.8196C646.843 37.544 647.052 38.375 647.052 39.3125C647.052 40.2121 646.851 41.036 646.448 41.7841C646.046 42.5275 645.48 43.1193 644.751 43.5597C644.026 43.9953 643.174 44.2083 642.194 44.1989ZM642.194 42.6364C642.79 42.6364 643.325 42.4872 643.799 42.1889C644.277 41.8906 644.654 41.4905 644.928 40.9886C645.208 40.4867 645.347 39.928 645.347 39.3125C645.347 38.7112 645.212 38.1643 644.942 37.6719C644.677 37.1747 644.31 36.7794 643.842 36.4858C643.378 36.1922 642.847 36.0455 642.251 36.0455C641.801 36.0455 641.382 36.1354 640.994 36.3153C640.605 36.4905 640.264 36.732 639.971 37.0398C639.682 37.3475 639.455 37.7003 639.289 38.098C639.123 38.491 639.04 38.9053 639.04 39.3409C639.04 39.9186 639.175 40.4583 639.445 40.9602C639.72 41.4621 640.094 41.867 640.567 42.1747C641.046 42.4825 641.588 42.6364 642.194 42.6364ZM654.504 44.1989C653.528 44.1989 652.667 44.026 651.919 43.6804C651.175 43.33 650.595 42.8494 650.179 42.2386C649.762 41.6231 649.556 40.9223 649.561 40.1364C649.556 39.5208 649.677 38.9527 649.923 38.4318C650.169 37.9062 650.505 37.4683 650.931 37.1179C651.362 36.7628 651.843 36.5379 652.373 36.4432V36.358C651.677 36.178 651.123 35.7874 650.711 35.1861C650.299 34.58 650.096 33.8911 650.1 33.1193C650.096 32.3807 650.283 31.7202 650.661 31.1378C651.04 30.5554 651.561 30.0961 652.224 29.7599C652.892 29.4238 653.652 29.2557 654.504 29.2557C655.347 29.2557 656.099 29.4238 656.762 29.7599C657.425 30.0961 657.946 30.5554 658.325 31.1378C658.708 31.7202 658.902 32.3807 658.907 33.1193C658.902 33.8911 658.692 34.58 658.275 35.1861C657.863 35.7874 657.316 36.178 656.635 36.358V36.4432C657.16 36.5379 657.634 36.7628 658.055 37.1179C658.476 37.4683 658.813 37.9062 659.063 38.4318C659.314 38.9527 659.442 39.5208 659.447 40.1364C659.442 40.9223 659.229 41.6231 658.808 42.2386C658.391 42.8494 657.811 43.33 657.068 43.6804C656.329 44.026 655.474 44.1989 654.504 44.1989ZM654.504 42.6364C655.162 42.6364 655.73 42.5298 656.208 42.3168C656.687 42.1037 657.056 41.803 657.316 41.4148C657.577 41.0265 657.709 40.572 657.714 40.0511C657.709 39.5019 657.567 39.0166 657.288 38.5952C657.009 38.1738 656.627 37.8423 656.144 37.6009C655.666 37.3594 655.119 37.2386 654.504 37.2386C653.884 37.2386 653.33 37.3594 652.842 37.6009C652.359 37.8423 651.978 38.1738 651.698 38.5952C651.424 39.0166 651.289 39.5019 651.294 40.0511C651.289 40.572 651.414 41.0265 651.67 41.4148C651.93 41.803 652.302 42.1037 652.785 42.3168C653.268 42.5298 653.841 42.6364 654.504 42.6364ZM654.504 35.733C655.025 35.733 655.486 35.6288 655.889 35.4205C656.296 35.2121 656.616 34.9209 656.848 34.5469C657.08 34.1728 657.198 33.7348 657.203 33.233C657.198 32.7405 657.082 32.312 656.855 31.9474C656.627 31.5781 656.313 31.294 655.91 31.0952C655.508 30.8916 655.039 30.7898 654.504 30.7898C653.959 30.7898 653.483 30.8916 653.076 31.0952C652.669 31.294 652.354 31.5781 652.132 31.9474C651.909 32.312 651.8 32.7405 651.805 33.233C651.8 33.7348 651.911 34.1728 652.139 34.5469C652.371 34.9209 652.69 35.2121 653.098 35.4205C653.505 35.6288 653.974 35.733 654.504 35.733Z" fill="white"/>
<rect x="131" width="409" height="150" fill="#DAA927"/>
<path d="M18.3862 107V48.8182H25.4317V74.7273H56.4544V48.8182H63.4998V107H56.4544V80.9773H25.4317V107H18.3862ZM94.9913 107.909C90.7868 107.909 87.1599 106.981 84.1106 105.125C81.0803 103.25 78.7413 100.636 77.0936 97.2841C75.4648 93.9129 74.6504 89.9924 74.6504 85.5227C74.6504 81.053 75.4648 77.1136 77.0936 73.7045C78.7413 70.2765 81.033 67.6061 83.9686 65.6932C86.9231 63.7614 90.3701 62.7955 94.3095 62.7955C96.5822 62.7955 98.8265 63.1742 101.042 63.9318C103.258 64.6894 105.275 65.9205 107.094 67.625C108.912 69.3106 110.361 71.5455 111.44 74.3295C112.52 77.1136 113.059 80.5417 113.059 84.6136V87.4545H79.4231V81.6591H106.241C106.241 79.197 105.749 77 104.764 75.0682C103.798 73.1364 102.416 71.6117 100.616 70.4943C98.836 69.3769 96.7337 68.8182 94.3095 68.8182C91.639 68.8182 89.3284 69.4811 87.3777 70.8068C85.4459 72.1136 83.9591 73.8182 82.9174 75.9205C81.8758 78.0227 81.3549 80.2765 81.3549 82.6818V86.5455C81.3549 89.8409 81.9231 92.6345 83.0595 94.9261C84.2148 97.1989 85.8152 98.9318 87.8606 100.125C89.9061 101.299 92.283 101.886 94.9913 101.886C96.7527 101.886 98.3436 101.64 99.764 101.148C101.203 100.636 102.444 99.8788 103.486 98.875C104.527 97.8523 105.332 96.5833 105.9 95.0682L112.378 96.8864C111.696 99.0833 110.55 101.015 108.94 102.682C107.33 104.33 105.342 105.617 102.974 106.545C100.607 107.455 97.9459 107.909 94.9913 107.909Z" fill="white"/>
<path d="M146.256 43.8182V102H137.478V43.8182H146.256ZM190.773 59.1023C190.47 56.4129 189.22 54.3295 187.023 52.8523C184.826 51.3561 182.061 50.608 178.728 50.608C176.342 50.608 174.277 50.9867 172.535 51.7443C170.792 52.483 169.438 53.5057 168.472 54.8125C167.525 56.1004 167.052 57.5682 167.052 59.2159C167.052 60.5985 167.374 61.7917 168.018 62.7955C168.681 63.7992 169.542 64.642 170.603 65.3239C171.683 65.9867 172.838 66.5455 174.069 67C175.3 67.4356 176.484 67.7955 177.62 68.0795L183.302 69.5568C185.158 70.0114 187.061 70.6269 189.012 71.4034C190.963 72.1799 192.772 73.2027 194.438 74.4716C196.105 75.7405 197.45 77.3125 198.472 79.1875C199.514 81.0625 200.035 83.3068 200.035 85.9205C200.035 89.2159 199.183 92.142 197.478 94.6989C195.792 97.2557 193.34 99.2727 190.12 100.75C186.919 102.227 183.046 102.966 178.501 102.966C174.145 102.966 170.376 102.275 167.194 100.892C164.012 99.5095 161.522 97.5492 159.722 95.0114C157.923 92.4545 156.929 89.4242 156.739 85.9205H165.546C165.717 88.0227 166.398 89.7746 167.592 91.1761C168.804 92.5587 170.347 93.5909 172.222 94.2727C174.116 94.9356 176.19 95.267 178.444 95.267C180.925 95.267 183.131 94.8788 185.063 94.1023C187.014 93.3068 188.548 92.2083 189.665 90.8068C190.783 89.3864 191.342 87.7292 191.342 85.8352C191.342 84.1117 190.849 82.7008 189.864 81.6023C188.898 80.5038 187.582 79.5947 185.915 78.875C184.268 78.1553 182.402 77.5208 180.319 76.9716L173.444 75.0966C168.785 73.8277 165.092 71.9621 162.364 69.5C159.656 67.0379 158.302 63.7803 158.302 59.7273C158.302 56.375 159.211 53.4489 161.029 50.9489C162.847 48.4489 165.309 46.5076 168.415 45.125C171.522 43.7235 175.025 43.0227 178.927 43.0227C182.866 43.0227 186.342 43.714 189.353 45.0966C192.383 46.4792 194.77 48.3826 196.512 50.8068C198.255 53.2121 199.164 55.9773 199.239 59.1023H190.773ZM210.525 102V43.8182H247.002V51.375H219.303V69.1023H245.099V76.6307H219.303V94.4432H247.343V102H210.525ZM305.688 43.8182V102H297.62L268.046 59.3295H267.506V102H258.728V43.8182H266.853L296.455 86.5455H296.995V43.8182H305.688ZM318.494 102V43.8182H339.8C343.929 43.8182 347.348 44.5 350.056 45.8636C352.764 47.2083 354.791 49.036 356.136 51.3466C357.48 53.6383 358.153 56.2235 358.153 59.1023C358.153 61.5265 357.708 63.572 356.817 65.2386C355.927 66.8864 354.734 68.2121 353.238 69.2159C351.761 70.2008 350.132 70.9205 348.352 71.375V71.9432C350.283 72.0379 352.168 72.6629 354.005 73.8182C355.861 74.9545 357.395 76.5739 358.607 78.6761C359.819 80.7784 360.425 83.3352 360.425 86.3466C360.425 89.3201 359.725 91.9905 358.323 94.358C356.941 96.7064 354.8 98.572 351.903 99.9545C349.005 101.318 345.302 102 340.795 102H318.494ZM327.272 94.4716H339.942C344.147 94.4716 347.158 93.6572 348.977 92.0284C350.795 90.3996 351.704 88.3636 351.704 85.9205C351.704 84.0833 351.24 82.3977 350.312 80.8636C349.384 79.3295 348.058 78.108 346.335 77.1989C344.63 76.2898 342.603 75.8352 340.255 75.8352H327.272V94.4716ZM327.272 68.9886H339.033C341.003 68.9886 342.774 68.6098 344.346 67.8523C345.937 67.0947 347.196 66.0341 348.124 64.6705C349.071 63.2879 349.545 61.6591 349.545 59.7841C349.545 57.3788 348.702 55.3617 347.016 53.733C345.331 52.1042 342.746 51.2898 339.261 51.2898H327.272V68.9886ZM408.252 43.8182H417.059V82.0852C417.059 86.1572 416.103 89.7652 414.19 92.9091C412.277 96.0341 409.587 98.4962 406.121 100.295C402.656 102.076 398.593 102.966 393.934 102.966C389.294 102.966 385.241 102.076 381.775 100.295C378.309 98.4962 375.62 96.0341 373.707 92.9091C371.794 89.7652 370.837 86.1572 370.837 82.0852V43.8182H379.616V81.375C379.616 84.0076 380.193 86.3466 381.349 88.392C382.523 90.4375 384.18 92.0473 386.32 93.2216C388.46 94.3769 390.998 94.9545 393.934 94.9545C396.888 94.9545 399.436 94.3769 401.576 93.2216C403.735 92.0473 405.383 90.4375 406.519 88.392C407.674 86.3466 408.252 84.0076 408.252 81.375V43.8182ZM429.822 102V43.8182H450.56C455.068 43.8182 458.808 44.5947 461.782 46.1477C464.774 47.7008 467.009 49.8504 468.487 52.5966C469.964 55.3239 470.702 58.4773 470.702 62.0568C470.702 65.6174 469.954 68.7519 468.458 71.4602C466.981 74.1496 464.746 76.2424 461.754 77.7386C458.78 79.2348 455.04 79.983 450.532 79.983H434.822V72.4261H449.737C452.577 72.4261 454.888 72.0189 456.668 71.2045C458.468 70.3902 459.784 69.2064 460.617 67.6534C461.451 66.1004 461.867 64.2348 461.867 62.0568C461.867 59.8598 461.441 57.9564 460.589 56.3466C459.755 54.7367 458.439 53.5057 456.64 52.6534C454.86 51.7822 452.521 51.3466 449.623 51.3466H438.6V102H429.822ZM458.543 75.75L472.918 102H462.918L448.827 75.75H458.543ZM520.759 62.1989C520.21 60.4754 519.471 58.9318 518.543 57.5682C517.634 56.1856 516.545 55.0114 515.276 54.0455C514.007 53.0606 512.558 52.3125 510.93 51.8011C509.32 51.2898 507.549 51.0341 505.617 51.0341C502.341 51.0341 499.386 51.8769 496.754 53.5625C494.121 55.2481 492.038 57.7197 490.504 60.9773C488.988 64.2159 488.231 68.1837 488.231 72.8807C488.231 77.5966 488.998 81.5833 490.532 84.8409C492.066 88.0985 494.168 90.5701 496.839 92.2557C499.509 93.9413 502.549 94.7841 505.958 94.7841C509.121 94.7841 511.877 94.1402 514.225 92.8523C516.593 91.5644 518.42 89.7462 519.708 87.3977C521.015 85.0303 521.668 82.2462 521.668 79.0455L523.941 79.4716H507.293V72.2273H530.163V78.8466C530.163 83.733 529.121 87.9754 527.038 91.5739C524.973 95.1534 522.113 97.9186 518.458 99.8693C514.822 101.82 510.655 102.795 505.958 102.795C500.693 102.795 496.072 101.583 492.094 99.1591C488.136 96.7348 485.049 93.2973 482.833 88.8466C480.617 84.3769 479.509 79.0739 479.509 72.9375C479.509 68.2973 480.153 64.1307 481.441 60.4375C482.729 56.7443 484.538 53.6098 486.867 51.0341C489.216 48.4394 491.971 46.4602 495.134 45.0966C498.316 43.714 501.791 43.0227 505.56 43.0227C508.704 43.0227 511.63 43.4867 514.339 44.4148C517.066 45.3428 519.49 46.6591 521.612 48.3636C523.752 50.0682 525.522 52.0947 526.924 54.4432C528.326 56.7727 529.272 59.358 529.765 62.1989H520.759Z" fill="black"/>
<path d="M107.338 48V46.7216L112.139 41.4659C112.702 40.8504 113.166 40.3153 113.531 39.8608C113.896 39.4015 114.166 38.9706 114.341 38.5682C114.521 38.161 114.611 37.7348 114.611 37.2898C114.611 36.7784 114.488 36.3357 114.241 35.9616C114 35.5876 113.668 35.2988 113.247 35.0952C112.826 34.8916 112.352 34.7898 111.827 34.7898C111.268 34.7898 110.78 34.9058 110.363 35.1378C109.952 35.3651 109.632 35.6847 109.405 36.0966C109.182 36.5085 109.071 36.9915 109.071 37.5455H107.395C107.395 36.6932 107.591 35.9451 107.984 35.3011C108.377 34.6572 108.912 34.1553 109.589 33.7955C110.271 33.4356 111.036 33.2557 111.883 33.2557C112.736 33.2557 113.491 33.4356 114.149 33.7955C114.807 34.1553 115.323 34.6406 115.697 35.2514C116.071 35.8622 116.258 36.5417 116.258 37.2898C116.258 37.8248 116.161 38.348 115.967 38.8594C115.778 39.366 115.446 39.9318 114.973 40.5568C114.504 41.1771 113.853 41.9347 113.02 42.8295L109.753 46.3239V46.4375H116.514V48H107.338Z" fill="white"/>
</svg>
