<svg width="778" height="150" viewBox="0 0 778 150" fill="none" xmlns="http://www.w3.org/2000/svg">
<rect width="126" height="150" fill="#222222"/>
<rect x="652" width="126" height="150" fill="#222222"/>
<path d="M679.756 103V44.8182H714.87V51.0682H686.802V70.7273H713.052V76.9773H686.802V96.75H715.325V103H679.756ZM726.66 103V59.3636H733.137V65.9545H733.592C734.387 63.7955 735.826 62.0436 737.91 60.6989C739.993 59.3542 742.342 58.6818 744.955 58.6818C745.448 58.6818 746.063 58.6913 746.802 58.7102C747.54 58.7292 748.099 58.7576 748.478 58.7955V65.6136C748.251 65.5568 747.73 65.4716 746.915 65.358C746.12 65.2254 745.277 65.1591 744.387 65.1591C742.266 65.1591 740.372 65.6042 738.705 66.4943C737.058 67.3655 735.751 68.5777 734.785 70.1307C733.838 71.6648 733.364 73.4167 733.364 75.3864V103H726.66Z" fill="white"/>
<path d="M750.433 44.1989C749.836 44.1894 749.24 44.0758 748.643 43.858C748.047 43.6402 747.502 43.2732 747.01 42.7571C746.517 42.2363 746.122 41.5331 745.824 40.6477C745.525 39.7576 745.376 38.6402 745.376 37.2955C745.376 36.0076 745.497 34.8665 745.738 33.8722C745.98 32.8731 746.33 32.0327 746.789 31.3509C747.249 30.6643 747.803 30.1435 748.451 29.7884C749.105 29.4332 749.841 29.2557 750.66 29.2557C751.475 29.2557 752.199 29.419 752.833 29.7457C753.473 30.0677 753.993 30.5175 754.396 31.0952C754.798 31.6728 755.059 32.3381 755.177 33.0909H753.444C753.283 32.4375 752.971 31.8954 752.507 31.4645C752.043 31.0336 751.427 30.8182 750.66 30.8182C749.533 30.8182 748.645 31.3082 747.997 32.2884C747.353 33.2685 747.029 34.6439 747.024 36.4148H747.137C747.403 36.0123 747.717 35.669 748.082 35.3849C748.451 35.0961 748.859 34.8736 749.304 34.7173C749.749 34.5611 750.22 34.483 750.717 34.483C751.55 34.483 752.313 34.6913 753.004 35.108C753.695 35.5199 754.249 36.0904 754.666 36.8196C755.083 37.544 755.291 38.375 755.291 39.3125C755.291 40.2121 755.09 41.036 754.687 41.7841C754.285 42.5275 753.719 43.1193 752.99 43.5597C752.265 43.9953 751.413 44.2083 750.433 44.1989ZM750.433 42.6364C751.029 42.6364 751.565 42.4872 752.038 42.1889C752.516 41.8906 752.893 41.4905 753.167 40.9886C753.447 40.4867 753.586 39.928 753.586 39.3125C753.586 38.7112 753.451 38.1643 753.181 37.6719C752.916 37.1747 752.549 36.7794 752.081 36.4858C751.617 36.1922 751.086 36.0455 750.49 36.0455C750.04 36.0455 749.621 36.1354 749.233 36.3153C748.844 36.4905 748.503 36.732 748.21 37.0398C747.921 37.3475 747.694 37.7003 747.528 38.098C747.362 38.491 747.279 38.9053 747.279 39.3409C747.279 39.9186 747.414 40.4583 747.684 40.9602C747.959 41.4621 748.333 41.867 748.806 42.1747C749.285 42.4825 749.827 42.6364 750.433 42.6364ZM762.743 44.1989C761.768 44.1989 760.906 44.026 760.158 43.6804C759.414 43.33 758.834 42.8494 758.418 42.2386C758.001 41.6231 757.795 40.9223 757.8 40.1364C757.795 39.5208 757.916 38.9527 758.162 38.4318C758.408 37.9062 758.744 37.4683 759.17 37.1179C759.601 36.7628 760.082 36.5379 760.612 36.4432V36.358C759.916 36.178 759.362 35.7874 758.95 35.1861C758.538 34.58 758.335 33.8911 758.339 33.1193C758.335 32.3807 758.522 31.7202 758.901 31.1378C759.279 30.5554 759.8 30.0961 760.463 29.7599C761.131 29.4238 761.891 29.2557 762.743 29.2557C763.586 29.2557 764.339 29.4238 765.001 29.7599C765.664 30.0961 766.185 30.5554 766.564 31.1378C766.947 31.7202 767.142 32.3807 767.146 33.1193C767.142 33.8911 766.931 34.58 766.514 35.1861C766.102 35.7874 765.555 36.178 764.874 36.358V36.4432C765.399 36.5379 765.873 36.7628 766.294 37.1179C766.715 37.4683 767.052 37.9062 767.303 38.4318C767.554 38.9527 767.681 39.5208 767.686 40.1364C767.681 40.9223 767.468 41.6231 767.047 42.2386C766.63 42.8494 766.05 43.33 765.307 43.6804C764.568 44.026 763.714 44.1989 762.743 44.1989ZM762.743 42.6364C763.401 42.6364 763.969 42.5298 764.447 42.3168C764.926 42.1037 765.295 41.803 765.555 41.4148C765.816 41.0265 765.948 40.572 765.953 40.0511C765.948 39.5019 765.806 39.0166 765.527 38.5952C765.248 38.1738 764.866 37.8423 764.384 37.6009C763.905 37.3594 763.358 37.2386 762.743 37.2386C762.123 37.2386 761.569 37.3594 761.081 37.6009C760.598 37.8423 760.217 38.1738 759.938 38.5952C759.663 39.0166 759.528 39.5019 759.533 40.0511C759.528 40.572 759.653 41.0265 759.909 41.4148C760.17 41.803 760.541 42.1037 761.024 42.3168C761.507 42.5298 762.08 42.6364 762.743 42.6364ZM762.743 35.733C763.264 35.733 763.725 35.6288 764.128 35.4205C764.535 35.2121 764.855 34.9209 765.087 34.5469C765.319 34.1728 765.437 33.7348 765.442 33.233C765.437 32.7405 765.321 32.312 765.094 31.9474C764.866 31.5781 764.552 31.294 764.149 31.0952C763.747 30.8916 763.278 30.7898 762.743 30.7898C762.198 30.7898 761.723 30.8916 761.315 31.0952C760.908 31.294 760.593 31.5781 760.371 31.9474C760.148 32.312 760.039 32.7405 760.044 33.233C760.039 33.7348 760.151 34.1728 760.378 34.5469C760.61 34.9209 760.929 35.2121 761.337 35.4205C761.744 35.6288 762.213 35.733 762.743 35.733Z" fill="white"/>
<rect x="126" width="526" height="150" fill="#DAA927"/>
<path d="M16.1548 107V48.8182H23.2003V74.7273H54.223V48.8182H61.2685V107H54.223V80.9773H23.2003V107H16.1548ZM92.7599 107.909C88.5554 107.909 84.9285 106.981 81.8793 105.125C78.849 103.25 76.5099 100.636 74.8622 97.2841C73.2334 93.9129 72.419 89.9924 72.419 85.5227C72.419 81.053 73.2334 77.1136 74.8622 73.7045C76.5099 70.2765 78.8016 67.6061 81.7372 65.6932C84.6918 63.7614 88.1387 62.7955 92.0781 62.7955C94.3509 62.7955 96.5952 63.1742 98.8111 63.9318C101.027 64.6894 103.044 65.9205 104.862 67.625C106.68 69.3106 108.129 71.5455 109.209 74.3295C110.288 77.1136 110.828 80.5417 110.828 84.6136V87.4545H77.1918V81.6591H104.01C104.01 79.197 103.518 77 102.533 75.0682C101.567 73.1364 100.184 71.6117 98.3849 70.4943C96.6046 69.3769 94.5024 68.8182 92.0781 68.8182C89.4077 68.8182 87.0971 69.4811 85.1463 70.8068C83.2145 72.1136 81.7277 73.8182 80.6861 75.9205C79.6444 78.0227 79.1236 80.2765 79.1236 82.6818V86.5455C79.1236 89.8409 79.6918 92.6345 80.8281 94.9261C81.9834 97.1989 83.5838 98.9318 85.6293 100.125C87.6747 101.299 90.0516 101.886 92.7599 101.886C94.5213 101.886 96.1122 101.64 97.5327 101.148C98.9721 100.636 100.213 99.8788 101.254 98.875C102.296 97.8523 103.101 96.5833 103.669 95.0682L110.146 96.8864C109.464 99.0833 108.319 101.015 106.709 102.682C105.099 104.33 103.11 105.617 100.743 106.545C98.3755 107.455 95.7145 107.909 92.7599 107.909Z" fill="white"/>
<path d="M151.374 43.8182V102H142.595V43.8182H151.374ZM195.891 59.1023C195.588 56.4129 194.338 54.3295 192.141 52.8523C189.944 51.3561 187.179 50.608 183.845 50.608C181.459 50.608 179.394 50.9867 177.652 51.7443C175.91 52.483 174.555 53.5057 173.589 54.8125C172.643 56.1004 172.169 57.5682 172.169 59.2159C172.169 60.5985 172.491 61.7917 173.135 62.7955C173.798 63.7992 174.66 64.642 175.72 65.3239C176.8 65.9867 177.955 66.5455 179.186 67C180.417 67.4356 181.601 67.7955 182.737 68.0795L188.419 69.5568C190.275 70.0114 192.179 70.6269 194.129 71.4034C196.08 72.1799 197.889 73.2027 199.555 74.4716C201.222 75.7405 202.567 77.3125 203.589 79.1875C204.631 81.0625 205.152 83.3068 205.152 85.9205C205.152 89.2159 204.3 92.142 202.595 94.6989C200.91 97.2557 198.457 99.2727 195.237 100.75C192.036 102.227 188.163 102.966 183.618 102.966C179.262 102.966 175.493 102.275 172.311 100.892C169.129 99.5095 166.639 97.5492 164.839 95.0114C163.04 92.4545 162.046 89.4242 161.857 85.9205H170.663C170.834 88.0227 171.516 89.7746 172.709 91.1761C173.921 92.5587 175.464 93.5909 177.339 94.2727C179.233 94.9356 181.307 95.267 183.561 95.267C186.042 95.267 188.249 94.8788 190.18 94.1023C192.131 93.3068 193.665 92.2083 194.783 90.8068C195.9 89.3864 196.459 87.7292 196.459 85.8352C196.459 84.1117 195.966 82.7008 194.982 81.6023C194.016 80.5038 192.699 79.5947 191.033 78.875C189.385 78.1553 187.519 77.5208 185.436 76.9716L178.561 75.0966C173.902 73.8277 170.209 71.9621 167.482 69.5C164.773 67.0379 163.419 63.7803 163.419 59.7273C163.419 56.375 164.328 53.4489 166.146 50.9489C167.964 48.4489 170.427 46.5076 173.533 45.125C176.639 43.7235 180.143 43.0227 184.044 43.0227C187.983 43.0227 191.459 43.714 194.47 45.0966C197.5 46.4792 199.887 48.3826 201.629 50.8068C203.372 53.2121 204.281 55.9773 204.357 59.1023H195.891ZM215.642 102V43.8182H252.119V51.375H224.42V69.1023H250.216V76.6307H224.42V94.4432H252.46V102H215.642ZM310.805 43.8182V102H302.737L273.163 59.3295H272.624V102H263.845V43.8182H271.97L301.572 86.5455H302.112V43.8182H310.805ZM323.611 102V43.8182H344.918C349.046 43.8182 352.465 44.5 355.173 45.8636C357.882 47.2083 359.908 49.036 361.253 51.3466C362.598 53.6383 363.27 56.2235 363.27 59.1023C363.27 61.5265 362.825 63.572 361.935 65.2386C361.045 66.8864 359.851 68.2121 358.355 69.2159C356.878 70.2008 355.249 70.9205 353.469 71.375V71.9432C355.401 72.0379 357.285 72.6629 359.122 73.8182C360.978 74.9545 362.512 76.5739 363.724 78.6761C364.937 80.7784 365.543 83.3352 365.543 86.3466C365.543 89.3201 364.842 91.9905 363.44 94.358C362.058 96.7064 359.918 98.572 357.02 99.9545C354.122 101.318 350.42 102 345.912 102H323.611ZM332.389 94.4716H345.06C349.264 94.4716 352.276 93.6572 354.094 92.0284C355.912 90.3996 356.821 88.3636 356.821 85.9205C356.821 84.0833 356.357 82.3977 355.429 80.8636C354.501 79.3295 353.175 78.108 351.452 77.1989C349.747 76.2898 347.721 75.8352 345.372 75.8352H332.389V94.4716ZM332.389 68.9886H344.151C346.12 68.9886 347.891 68.6098 349.463 67.8523C351.054 67.0947 352.313 66.0341 353.241 64.6705C354.188 63.2879 354.662 61.6591 354.662 59.7841C354.662 57.3788 353.819 55.3617 352.134 53.733C350.448 52.1042 347.863 51.2898 344.378 51.2898H332.389V68.9886ZM413.369 43.8182H422.176V82.0852C422.176 86.1572 421.22 89.7652 419.307 92.9091C417.394 96.0341 414.705 98.4962 411.239 100.295C407.773 102.076 403.71 102.966 399.051 102.966C394.411 102.966 390.358 102.076 386.892 100.295C383.426 98.4962 380.737 96.0341 378.824 92.9091C376.911 89.7652 375.955 86.1572 375.955 82.0852V43.8182H384.733V81.375C384.733 84.0076 385.311 86.3466 386.466 88.392C387.64 90.4375 389.297 92.0473 391.438 93.2216C393.578 94.3769 396.116 94.9545 399.051 94.9545C402.006 94.9545 404.553 94.3769 406.693 93.2216C408.852 92.0473 410.5 90.4375 411.636 88.392C412.792 86.3466 413.369 84.0076 413.369 81.375V43.8182ZM434.939 102V43.8182H455.678C460.185 43.8182 463.926 44.5947 466.899 46.1477C469.892 47.7008 472.126 49.8504 473.604 52.5966C475.081 55.3239 475.82 58.4773 475.82 62.0568C475.82 65.6174 475.071 68.7519 473.575 71.4602C472.098 74.1496 469.863 76.2424 466.871 77.7386C463.897 79.2348 460.157 79.983 455.649 79.983H439.939V72.4261H454.854C457.695 72.4261 460.005 72.0189 461.786 71.2045C463.585 70.3902 464.901 69.2064 465.734 67.6534C466.568 66.1004 466.984 64.2348 466.984 62.0568C466.984 59.8598 466.558 57.9564 465.706 56.3466C464.873 54.7367 463.556 53.5057 461.757 52.6534C459.977 51.7822 457.638 51.3466 454.74 51.3466H443.717V102H434.939ZM463.661 75.75L478.036 102H468.036L453.945 75.75H463.661ZM525.876 62.1989C525.327 60.4754 524.589 58.9318 523.661 57.5682C522.751 56.1856 521.662 55.0114 520.393 54.0455C519.125 53.0606 517.676 52.3125 516.047 51.8011C514.437 51.2898 512.666 51.0341 510.734 51.0341C507.458 51.0341 504.503 51.8769 501.871 53.5625C499.238 55.2481 497.155 57.7197 495.621 60.9773C494.106 64.2159 493.348 68.1837 493.348 72.8807C493.348 77.5966 494.115 81.5833 495.649 84.8409C497.183 88.0985 499.286 90.5701 501.956 92.2557C504.626 93.9413 507.666 94.7841 511.075 94.7841C514.238 94.7841 516.994 94.1402 519.342 92.8523C521.71 91.5644 523.537 89.7462 524.825 87.3977C526.132 85.0303 526.786 82.2462 526.786 79.0455L529.058 79.4716H512.411V72.2273H535.28V78.8466C535.28 83.733 534.238 87.9754 532.155 91.5739C530.09 95.1534 527.231 97.9186 523.575 99.8693C519.939 101.82 515.772 102.795 511.075 102.795C505.81 102.795 501.189 101.583 497.212 99.1591C493.253 96.7348 490.166 93.2973 487.95 88.8466C485.734 84.3769 484.626 79.0739 484.626 72.9375C484.626 68.2973 485.27 64.1307 486.558 60.4375C487.846 56.7443 489.655 53.6098 491.984 51.0341C494.333 48.4394 497.089 46.4602 500.251 45.0966C503.433 43.714 506.909 43.0227 510.678 43.0227C513.821 43.0227 516.748 43.4867 519.456 44.4148C522.183 45.3428 524.607 46.6591 526.729 48.3636C528.869 50.0682 530.64 52.0947 532.041 54.4432C533.443 56.7727 534.39 59.358 534.882 62.1989H525.876ZM546.423 102V43.8182H582.901V51.375H555.202V69.1023H580.997V76.6307H555.202V94.4432H583.241V102H546.423ZM594.626 102V43.8182H615.365C619.873 43.8182 623.613 44.5947 626.587 46.1477C629.579 47.7008 631.814 49.8504 633.291 52.5966C634.768 55.3239 635.507 58.4773 635.507 62.0568C635.507 65.6174 634.759 68.7519 633.263 71.4602C631.786 74.1496 629.551 76.2424 626.558 77.7386C623.585 79.2348 619.844 79.983 615.337 79.983H599.626V72.4261H614.541C617.382 72.4261 619.693 72.0189 621.473 71.2045C623.272 70.3902 624.589 69.2064 625.422 67.6534C626.255 66.1004 626.672 64.2348 626.672 62.0568C626.672 59.8598 626.246 57.9564 625.393 56.3466C624.56 54.7367 623.244 53.5057 621.445 52.6534C619.664 51.7822 617.325 51.3466 614.428 51.3466H603.405V102H594.626ZM623.348 75.75L637.723 102H627.723L613.632 75.75H623.348Z" fill="black"/>
<path d="M103.451 48V46.7216L108.252 41.4659C108.816 40.8504 109.28 40.3153 109.644 39.8608C110.009 39.4015 110.279 38.9706 110.454 38.5682C110.634 38.161 110.724 37.7348 110.724 37.2898C110.724 36.7784 110.601 36.3357 110.354 35.9616C110.113 35.5876 109.781 35.2988 109.36 35.0952C108.939 34.8916 108.465 34.7898 107.94 34.7898C107.381 34.7898 106.893 34.9058 106.477 35.1378C106.065 35.3651 105.745 35.6847 105.518 36.0966C105.295 36.5085 105.184 36.9915 105.184 37.5455H103.508C103.508 36.6932 103.704 35.9451 104.097 35.3011C104.49 34.6572 105.025 34.1553 105.702 33.7955C106.384 33.4356 107.149 33.2557 107.996 33.2557C108.849 33.2557 109.604 33.4356 110.262 33.7955C110.92 34.1553 111.436 34.6406 111.81 35.2514C112.184 35.8622 112.371 36.5417 112.371 37.2898C112.371 37.8248 112.274 38.348 112.08 38.8594C111.891 39.366 111.559 39.9318 111.086 40.5568C110.617 41.1771 109.966 41.9347 109.133 42.8295L105.866 46.3239V46.4375H112.627V48H103.451Z" fill="white"/>
</svg>
